<mxfile host="Electron" agent="Mozilla/5.0 (Windows NT 10.0; Win64; x64) AppleWebKit/537.36 (KHTML, like Gecko) draw.io/24.7.8 Chrome/128.0.6613.36 Electron/32.0.1 Safari/537.36" version="24.7.8">
  <diagram name="Page-1" id="LMdi5cEbA6-JFnNUmCrz">
    <mxGraphModel dx="819" dy="483" grid="1" gridSize="10" guides="1" tooltips="1" connect="1" arrows="1" fold="1" page="1" pageScale="1" pageWidth="850" pageHeight="1100" math="0" shadow="0">
      <root>
        <mxCell id="0" />
        <mxCell id="1" parent="0" />
        <mxCell id="LPqRybfHKYkECLfE41IW-5" style="edgeStyle=orthogonalEdgeStyle;rounded=0;orthogonalLoop=1;jettySize=auto;html=1;exitX=1;exitY=0.25;exitDx=0;exitDy=0;entryX=0;entryY=0.25;entryDx=0;entryDy=0;" edge="1" parent="1" source="LPqRybfHKYkECLfE41IW-1" target="LPqRybfHKYkECLfE41IW-3">
          <mxGeometry relative="1" as="geometry" />
        </mxCell>
        <mxCell id="LPqRybfHKYkECLfE41IW-9" style="edgeStyle=orthogonalEdgeStyle;rounded=0;orthogonalLoop=1;jettySize=auto;html=1;exitX=0.25;exitY=0;exitDx=0;exitDy=0;entryX=0;entryY=0.25;entryDx=0;entryDy=0;" edge="1" parent="1" source="LPqRybfHKYkECLfE41IW-1" target="LPqRybfHKYkECLfE41IW-2">
          <mxGeometry relative="1" as="geometry" />
        </mxCell>
        <mxCell id="LPqRybfHKYkECLfE41IW-1" value="Környezet manipulálása&lt;div&gt;(Sandbox)&lt;/div&gt;" style="rounded=1;whiteSpace=wrap;html=1;" vertex="1" parent="1">
          <mxGeometry x="260" y="460" width="120" height="60" as="geometry" />
        </mxCell>
        <mxCell id="LPqRybfHKYkECLfE41IW-4" style="edgeStyle=orthogonalEdgeStyle;rounded=0;orthogonalLoop=1;jettySize=auto;html=1;exitX=0;exitY=0.75;exitDx=0;exitDy=0;entryX=0.5;entryY=0;entryDx=0;entryDy=0;" edge="1" parent="1" source="LPqRybfHKYkECLfE41IW-2" target="LPqRybfHKYkECLfE41IW-1">
          <mxGeometry relative="1" as="geometry" />
        </mxCell>
        <mxCell id="LPqRybfHKYkECLfE41IW-7" style="edgeStyle=orthogonalEdgeStyle;rounded=0;orthogonalLoop=1;jettySize=auto;html=1;exitX=1;exitY=0.25;exitDx=0;exitDy=0;entryX=0.75;entryY=0;entryDx=0;entryDy=0;" edge="1" parent="1" source="LPqRybfHKYkECLfE41IW-2" target="LPqRybfHKYkECLfE41IW-3">
          <mxGeometry relative="1" as="geometry" />
        </mxCell>
        <mxCell id="LPqRybfHKYkECLfE41IW-2" value="Környezet meghatározása&lt;br&gt;(Pszeudorandom generálás)" style="rounded=1;whiteSpace=wrap;html=1;" vertex="1" parent="1">
          <mxGeometry x="360" y="340" width="120" height="60" as="geometry" />
        </mxCell>
        <mxCell id="LPqRybfHKYkECLfE41IW-6" style="edgeStyle=orthogonalEdgeStyle;rounded=0;orthogonalLoop=1;jettySize=auto;html=1;exitX=0.5;exitY=0;exitDx=0;exitDy=0;entryX=1;entryY=0.75;entryDx=0;entryDy=0;" edge="1" parent="1" source="LPqRybfHKYkECLfE41IW-3" target="LPqRybfHKYkECLfE41IW-2">
          <mxGeometry relative="1" as="geometry" />
        </mxCell>
        <mxCell id="LPqRybfHKYkECLfE41IW-8" style="edgeStyle=orthogonalEdgeStyle;rounded=0;orthogonalLoop=1;jettySize=auto;html=1;exitX=0;exitY=0.75;exitDx=0;exitDy=0;entryX=1;entryY=0.75;entryDx=0;entryDy=0;" edge="1" parent="1" source="LPqRybfHKYkECLfE41IW-3" target="LPqRybfHKYkECLfE41IW-1">
          <mxGeometry relative="1" as="geometry" />
        </mxCell>
        <mxCell id="LPqRybfHKYkECLfE41IW-3" value="Környezet kiterjesztése&lt;div&gt;(Open World)&lt;/div&gt;" style="rounded=1;whiteSpace=wrap;html=1;" vertex="1" parent="1">
          <mxGeometry x="460" y="460" width="120" height="60" as="geometry" />
        </mxCell>
      </root>
    </mxGraphModel>
  </diagram>
</mxfile>
